# xmcd
#
# Track frame offsets:
#	150
#	12670
#	23907
#	37780
#	49035
#	66295
#	81622
#	97487
#	112672
#	126605
#
# Disc length: 1913 seconds
#
# Revision: 1
# Processed by: cddbd v1.5.1PL2 Copyright (c) Steve Scherf et al.
# Submitted via: audiograbber 1.83.01
#
DISCID=8b07770a
DTITLE=Gene Watson - Honky Tonk Crazy
DYEAR=1900
DGENRE=Country
TTITLE0=Honky Tonk Crazy
TTITLE1=Her Heart Or Mine
TTITLE2=I Didn't Think Of You At All
TTITLE3=Getting Used To Being Loved Again
TTITLE4=Nobody's Baby Tonight
TTITLE5=I Always Get It Right With You
TTITLE6=When She Touches Me
TTITLE7=Ashes To Ashes
TTITLE8=Everybody Needs A Hero
TTITLE9=You Took Her Off My Hands
EXTD=
EXTT0=
EXTT1=
EXTT2=
EXTT3=
EXTT4=
EXTT5=
EXTT6=
EXTT7=
EXTT8=
EXTT9=
PLAYORDER=
